{"title":"Stolichani v poveche - Season 4 - Episode 7","uid":7778695,"size":633655852,"categoryP":"video","categoryS":"tv_shows","magnet":"?xt=urn:btih:e0dcaf47bf92f73ccc702368a349855743b190af&amp;dn=Stolichani+v+poveche+-+Season+4+-+Episode+7&amp;tr=udp%3A%2F%2Ftracker.openbittorrent.com%3A80&amp;tr=udp%3A%2F%2Fopen.demonii.com%3A1337&amp;tr=udp%3A%2F%2Ftracker.coppersurfer.tk%3A6969&amp;tr=udp%3A%2F%2Fexodus.desync.com%3A6969","seeders":2,"leechers":0,"uploader":"CVSTOS","files":1,"time":1351717860,"description":"HQ TVRip\n\nFormat                                   : AVI\nFormat/Info                              : Audio Video Interleave\nFile size                                : 604 MiB\nDuration                                 : 43mn 51s\nOverall bit rate                         : 1 926 Kbps\n\nVideo\nFormat                                   : MPEG-4 Visual\nFormat profile                           : Advanced Simple@L5\nFormat settings, BVOP                    : 2\nFormat settings, QPel                    : No\nFormat settings, GMC                     : No warppoints\nFormat settings, Matrix                  : Default (H.263)\nMuxing mode                              : Packed bitstream\nCodec ID                                 : XVID\nCodec ID/Hint                            : XviD\nDuration                                 : 43mn 51s\nBit rate                                 : 1 789 Kbps\nWidth                                    : 768 pixels\nHeight                                   : 566 pixels\nDisplay aspect ratio                     : 16:9\nFrame rate                               : 25.000 fps\nColor space                              : YUV\nChroma subsampling                       : 4:2:0\nBit depth                                : 8 bits\nScan type                                : Progressive\nCompression mode                         : Lossy\nBits/(Pixel*Frame)                       : 0.165\nStream size                              : 561 MiB (93%)\nWriting library                          : XviD 1.1.2 (UTC 2006-11-01)\n\nAudio\nFormat                                   : MPEG Audio\nFormat version                           : Version 1\nFormat profile                           : Layer 3\nMode                                     : Joint stereo\nMode extension                           : MS Stereo\nCodec ID                                 : 55\nCodec ID/Hint                            : MP3\nDuration                                 : 43mn 51s\nBit rate mode                            : Constant\nBit rate                                 : 128 Kbps\nChannel(s)                               : 2 channels\nSampling rate                            : 44.1 KHz\nCompression mode                         : Lossy\nStream size                              : 40.1 MiB (7%)\nAlignment                                : Split accross interleaves\nInterleave, duration                     : 40 ms (1.00 video frame)\nInterleave, preload duration             : 500 ms\n\n","torrent":{"xt":"urn:btih:e0dcaf47bf92f73ccc702368a349855743b190af","amp;dn":"Stolichani+v+poveche+-+Season+4+-+Episode+7","amp;tr":["udp%3A%2F%2Ftracker.openbittorrent.com%3A80","udp%3A%2F%2Fopen.demonii.com%3A1337","udp%3A%2F%2Ftracker.coppersurfer.tk%3A6969","udp%3A%2F%2Fexodus.desync.com%3A6969"],"infoHash":"e0dcaf47bf92f73ccc702368a349855743b190af","infoHashBuffer":{"type":"Buffer","data":[224,220,175,71,191,146,247,60,204,112,35,104,163,73,133,87,67,177,144,175]},"announce":[],"urlList":[]}}